<?xml version="1.0" encoding="UTF-8"?>
<svg id="Layer_1" xmlns="http://www.w3.org/2000/svg" version="1.1" viewBox="0 0 963.95 1079.04">
  <!-- Generator: Adobe Illustrator 30.5.1, SVG Export Plug-In . SVG Version: 2.1.4 Build 3)  -->
  <defs>
    <style>
      .st0 {
        fill: #162f57;
      }

      .st1 {
        fill: #0b2852;
      }

      .st2 {
        fill: #a9843f;
      }

      .st3 {
        fill: #fcfcfc;
      }

      .st4 {
        fill: #00103d;
      }

      .st5 {
        fill: #0d2750;
      }

      .st6 {
        fill: #9a7a43;
      }

      .st7 {
        fill: #eff0f3;
      }

      .st8 {
        fill: #193159;
      }

      .st9 {
        fill: #192f5c;
      }

      .st10 {
        fill: #7e6941;
      }

      .st11 {
        fill: #a87f38;
      }

      .st12 {
        fill: #b1bac9;
      }

      .st13 {
        fill: #ae8941;
      }

      .st14 {
        fill: #ac8947;
      }

      .st15 {
        fill: #0a264f;
      }

      .st16 {
        fill: #b18d4e;
      }

      .st17 {
        fill: #ab8339;
      }

      .st18 {
        fill: #112b54;
      }

      .st19 {
        fill: #8f7444;
      }

      .st20 {
        fill: #092751;
      }

      .st21 {
        fill: #9e7d43;
      }

      .st22 {
        fill: #082650;
      }

      .st23 {
        fill: #273a63;
      }

      .st24 {
        fill: #04234e;
      }

      .st25 {
        fill: #576b89;
      }
    </style>
  </defs>
  <polygon class="st9" points="650.96 1030.9 649.69 1029.24 282.3 1029.24 281.03 1030.8 650.96 1030.9"/>
  <polygon class="st4" points="650.96 1030.9 100.5 1030.75 100.5 1026.57 865.5 1026.78 865.5 1030.95 281.03 1030.8 282.3 1029.24 649.69 1029.24 650.96 1030.9"/>
  <rect class="st17" x="910.91" y="908.19" width="53.04" height="3.6"/>
  <rect class="st17" x="0" y="908.2" width="52.24" height="3.55" transform="translate(-1.81 .05)"/>
  <circle class="st10" cx="632.18" cy="1069.46" r="3.9"/>
  <circle class="st10" cx="349.32" cy="1069.52" r="3.89"/>
  <g>
    <path class="st22" d="M429.96,793.73c.01-7.55-6.94-10.7-13.11-11.48l-3.2-.41c-.58-.07-.55-1.34-.54-2.97l54.83-.06c-.08,1.55-.09,2.91-.7,2.98l-2.96.36c-8.32,1.01-12.81,6.06-12.78,14.09l.12,31.77c-25.74,16.07-55.79,22.32-85.56,15.03-14.7-3.6-27.93-10.54-38.12-21.79-25.35-27.98-24.39-72.02,2.03-98.98,13.1-13.37,30.4-20.19,48.96-22.03,19.06-1.89,37.23,1.72,55.22,8.03,1.54.54,5.55,1.63,6.54.48l4.64-5.43c-.3,14.4,2.22,27.03.51,42.16-8.95-20.87-23.71-33.66-44.72-37.7-25.69-4.94-50.56,7.36-61.01,31.85-8.6,20.16-7.88,43.06,1.23,63.03,10.22,22.42,31.9,36.89,56.59,35.56,12.22-.66,22.95-5.06,31.97-13.47l.06-31Z"/>
    <g>
      <path class="st22" d="M138.64,842.49c-17.89,6.35-36.69,3.49-53.23-4.63-3.06-1.5-5.78-.91-9.1,1.99l-5.64-33.78,1.81-1.28c1.66-1.17,5.23,18.19,24.39,28.6,10.38,5.64,22.4,7.35,33.36,3.32,9.56-3.52,15.57-11.25,16.65-20.36,1.2-10.09-3.11-19.87-12.43-24.77l-30.71-16.14c-8.36-4.39-16.72-8.79-22.67-16.3-13.95-17.57-7.6-43.22,12.27-53.66,12.6-6.62,27.22-7.55,40.98-3.24l16.71,5.23,6.87-7.21.19,37.61c-.8.11-2.33.41-2.46.06l-.86-2.32c-5.14-21.18-26.07-33.92-46.96-27.71-6.61,1.96-11.73,6.97-13.77,12.22-14.71,37.93,60.96,35.29,71.41,73.39,5.72,20.88-5.9,41.54-26.81,48.96Z"/>
      <g>
        <path class="st24" d="M229.06,828.87l1.93-.04v-109.51c0-.7-.15-1.95-.53-2.01l-1.47-.5c-.82-4.59-2.91-8.73-7.83-9.89l-10.6-2.52.35-2.25,58.88-.02v2.59c-4.91.85-9.99,1.5-14.14,4.31-2.97,2.01-4.52,7.58-4.52,11.51l-.02,103.53c0,4.08,1.2,9.47,4.01,11.92,5.82,5.08,16.59,3.33,15.66,5.59l-.93,2.27-59.24-.09-.13-2.95,9.25-1.7c5.52-1.01,8.31-5.04,9.33-10.24Z"/>
        <path class="st4" d="M229.06,828.87l.93-4.77v-101.71s-1-5.57-1-5.57l1.47.5c.38.06.54,1.31.54,2.01v109.51s-1.94.04-1.94.04Z"/>
      </g>
    </g>
    <g>
      <path class="st20" d="M532.77,727.21l-1.21,94.97c-.06,4.78,1.47,10.67,4.67,13.76,4.98,4.81,15.47,3.66,15.42,5.05l-.1,2.84-47.99-.11.22-3.2c5.32-.77,11.06-1.34,14.78-4.74,4.55-4.16,5.07-11.19,5.18-17.31l1.68-95.16c.08-4.73-.7-10.23-4.25-13.28s-8.82-3.92-13.27-4.74l-2.28-.42c-.57-.1-.45-1.45-.33-2.82l38.85.16,58.26,112.68,59.3-112.7,35.33-.18,2.55.16c.73.05-.12,2.76-.87,2.87-10.04,1.54-18.4,3.59-18.34,15.29l.53,104.76c.02,4.31,1.78,9.84,5.34,11.79,4.61,2.52,9.8,3.03,14.52,3.88l-.02,2.78c0,.39-1.18.28-1.8.26l-57.89-.05c-4.24-5.42,6.58-1.92,13.51-6.82,3.7-2.61,5.13-7.84,5.08-12.31l-1.02-99.05-38.05,72.26-25.95,48.34-61.89-118.96Z"/>
      <path class="st20" d="M833.35,794.05l-54.69-.09-13.09,32c-1.57,3.84.18,8.14,2.46,11.28l12.01,3.19,1.97.4c.51.1.42.9.51,2.93l-48.84.06-.18-2.84c-.08-1.3,15.51.22,21.47-13.16l56.25-126.32c.27-.62.6-1.67.73-1.68l2.14-.13,57.03,128.09c3.47,7.79,10.54,11.18,18.17,12.26l3.07.44c.82.12.49,2.84.22,3.3l-61.29-.05-.11-2.93,12.6-2.5c3.95-3.08,4.66-7.2,3.05-11.8l-13.49-32.47ZM830.22,786.89l-24.31-55.54-24.42,55.72,48.72-.18Z"/>
    </g>
  </g>
  <g>
    <path class="st0" d="M479.59,932.89l-18.89.02c1.99-1.5,5.67-3.02,5.69-4.54l.21-17.52-22.81-.7-.09,17.55c0,1.82,3.11,3.54,5.88,5.24l-19.12-.02,4.3-2.52c.86-.5,1.37-2.82,1.37-4.03l-.02-33.24c0-1.25-.4-3.61-1.28-4.12l-4.37-2.54,18.7.26c-2.21,1.27-5.35,2.96-5.36,4.46l-.1,16.12,22.82-.17-.26-16.72c-.02-1.42-3.92-2.72-5.5-3.87l19.28-.08c-3.09,1.73-6.11,2.89-6.11,5.55l-.07,34.38c0,2.93,1.47,4.23,5.71,6.48Z"/>
    <path class="st8" d="M238.81,886.44l16.47.12-4.42,2.35c-.89.47-1.58,3.08-1.58,4.21l-.06,24.62c-.03,10.89-8.9,16.58-19.35,16.24-7.46-.24-16.48-2.99-17.78-11.65l-.81-29.13c-.04-1.29-.61-3.68-1.49-4.18l-4.44-2.52,19.9.09c-3.19,1.85-5.92,2.89-5.91,5.35l.1,26.26c.03,7.85,6.17,12.47,13.58,11.93,6.62-.48,12.31-4.72,12.28-12.01l-.12-26.98c0-1.84-4.04-3.16-6.39-4.73Z"/>
    <path class="st8" d="M178.93,910.61l-13.34-.54.3,19.39c5.76.4,10.74.66,16.03-.1,4.67-.67,5.62-5.29,9.62-9.01l-2.39,12.68-37.56-.14,4.32-2.32c1.03-.55,2.01-3.01,2.01-4.38l.08-32.9c0-1-.54-3.55-1.39-4.02l-4.97-2.76,36.26-.21.5,11.52c-2.71-3.09-4.08-7.88-7.04-7.96l-15.73-.4.06,17.32,9.4.24c1.18.03,3.77-.86,4.31-1.74l2.79-4.54.15,16.1c-1.69-2.36-1.71-2.64-3.39-6.24Z"/>
    <path class="st8" d="M820.76,886.41l15.57.13-4.3,2.46c-.86.49-1.55,3.02-1.55,4.1v25.04c.01,10.2-7.78,15.83-17.57,15.83-8.2,0-18.03-3.62-18.15-13.02l-.37-28.9c-.03-2.64-2.37-3.59-5.58-5.54l18.6-.02-3.56,2.14c-.85.51-1.91,2.76-1.9,3.85l.34,26.8c.09,7,5.63,10.97,11.75,10.94,7.23-.04,12.72-4.47,12.72-11.99v-25.1c0-.95-.47-3.39-1.22-3.84l-4.78-2.88Z"/>
    <path class="st18" d="M588.04,910.28c.22.13.93-1.58,1.12-2.05l-.74-14.04c-.07-1.3-.68-3.55-1.41-4.48-.61-.78-2.06-1.59-3.78-2.82l10.72-.37-2.93,5.16-.02,42.9-32.91-38.95-.13,30.3c0,1.38.97,4.14,2,4.69l4.33,2.31-15.36-.15,4.55-2.57c.9-.51,1.52-3.12,1.52-4.19v-32.81c0-3.21-3.2-4.72-6.6-6.55l12.37-.25,26.96,32.56.3-8.68Z"/>
    <path class="st0" d="M381.46,901.59c-2.45,9.62-.1,20.64,8.35,25.85,8.81,5.44,18.78,1.47,25.74-6.91-.81,8.9-10.3,13.19-18.49,13.36s-15.65-2.91-20.31-8.98c-4.92-6.41-6.41-14.75-3.64-22.78,4.82-14,20.05-20.22,33.94-14.43,1.88.79,3.87.54,6.77-.51.44,4.57.84,9.68.11,15.59-3.15-8.74-7.86-13.52-15.55-14.12-8.07-.63-14.73,4.29-16.93,12.95Z"/>
    <path class="st0" d="M350.02,931.14c-9.04,5.66-16.33.36-24.39.72l-1.02-13.24c4.68,6.99,7.42,12.33,15.48,12.36,3.71.01,7.39-2.3,8.54-5.82.87-2.66-.33-7.44-3.39-9.11l-13.08-7.15c-3.49-1.9-6.11-5.88-6.43-9.6-.33-3.93,1.78-8.51,5.26-11.02,8.24-5.96,15.19.31,22.1-1.48v12.47c-3.76-5.96-5.45-10.35-12.12-10.82-3.39-.24-7.14,1.42-8.24,4.32-1.27,3.36.17,7.41,3.61,9.19l11.24,5.81c4.45,2.3,7.68,5.98,8.03,10.19.44,5.31-1.04,10.35-5.57,13.19Z"/>
    <path class="st0" d="M639.21,923.99c-2.27,9-12.07,11.89-23.33,7.98-.82-.28-2.63-.14-4.57.06l-1.24-13.2c4.36,6.78,7.15,12.34,14.97,12.07,3.74-.13,7.33-3.08,8.16-6.29.9-3.5-.97-7.29-4.42-9.18l-10.98-6.02c-4.83-2.65-7.27-7.29-6.66-12.57.56-4.77,3.84-9.51,9.61-10.75,7.8-1.68,11.22,2.44,16.39.75v11.9c-2.76-4.1-4.15-6.91-6.18-8.41-2.89-2.14-7.59-2.43-10.61-.79-2.02,1.1-3.42,5.02-2.98,7.08.39,1.82,2.52,4.59,4.44,5.72l13.93,8.21c4.34,2.56,4.69,8.58,3.46,13.45Z"/>
    <path class="st8" d="M298.59,932.84h-19.54c2.94-1.55,5.86-3.12,5.86-5.5v-37.35s-6.76-.35-6.76-.35c-5.83-.3-6.64,3.84-9.54,8.84l.39-12,40.19-.11.11,12.26c-2.83-6.59-5.62-9.69-12.48-9.01l-4.23.42-.04,36.34c0,3.12,2.08,4.54,6.04,6.47Z"/>
    <path class="st0" d="M767.12,932.97l-19.44-.09,4.3-2.36c.87-.48,1.61-3.05,1.61-4.1l.06-35.95c-2.86-1.18-5.96-1-10.52-.08l-5.26,7.55.68-11.57,37.74-.05.48,11.6c-2.42-3.57-3.48-7.11-6.74-7.82-2.99-.66-6.12-.48-9.03-.15v36.39c0,1.21.52,3.46,1.41,3.96l4.71,2.67Z"/>
    <path class="st0" d="M870.44,927.05c0,2.48,2.96,4.14,5.74,5.74h-19.1c3.03-1.49,5.96-2.83,5.96-5.32l.02-37.54c-3.9-.77-8.74-.47-11.62,1.49l-3.98,7.13.17-12.14,38.14-.09.47,11.72-3.39-5.85c-2.74-2.96-8.07-3.49-12.33-2.23l-.07,37.1Z"/>
    <path class="st18" d="M680.66,932.87l-18.75-.07c3.25-1.65,5.93-2.95,5.92-5.77l-.1-36.92c-7.42-2.18-12.74.33-15.48,7.57l.24-11.29,38.12-.06.29,11.3-4.99-7.27c-4.57-.82-7.74-1.02-10.62.04l-.03,37.14c0,1.77,2.26,3.45,5.39,5.31Z"/>
    <path class="st0" d="M533.97,932.93l-19.29-.05c3.69-2.19,5.82-3.16,5.82-6.46v-33.32c.01-3.22-1.9-4.54-5.52-6.43l18.55-.16c-2.94,1.89-5.53,3.21-5.53,5.63v34.21c0,3.32,2.26,4.61,5.96,6.58Z"/>
    <path class="st18" d="M724.89,932.94l-19.13-.08,4.3-2.28c.89-.47,1.65-3.07,1.65-4.33l-.12-34.94c0-1.71-3.24-3.4-5.16-4.82l18.38.12c-3.1,1.68-5.65,3.18-5.65,5.56v34.17c0,3.14,1.95,4.49,5.74,6.6Z"/>
    <path class="st23" d="M588.04,910.28l.38-16.1.74,14.04c-.19.47-.91,2.18-1.12,2.05Z"/>
    <path class="st0" d="M116.05,932.41l-29.22.47c3.71-1.86,6.54-2.88,6.54-6.48v-33.3c0-1.04-.7-3.6-1.57-4.03l-4.93-2.42,30.56.47c10.79,1.35,18.16,10.55,18.59,21.1.48,11.74-7.31,22.81-19.97,24.18ZM119.99,926.53c9.88-8.23,9.76-24.43.79-32.91-5.38-5.09-13.24-5.04-19.65-3.74l.05,39.52c6.11.74,13.31,1.72,18.81-2.86Z"/>
  </g>
  <g>
    <path class="st16" d="M562.34,995.03c-2.5.02-4.07-1.2-5.17-2.7l-10-13.69-.36,12.36,2.78,3.74-8.44.27c3.46-6.39,3.43-16.32.26-23.18l5.31-.11,12.18,16.17c.82-7.4,1.17-11.28-2.07-16.14l8.08.06-2.47,4.26-.1,18.96Z"/>
    <path class="st14" d="M413.74,994.85l-14.51.14c3.34-6,3.49-16.6,0-23.21h12.72c1.86,0,5.11,1.91,5.6,3.56.56,1.85-.63,5.56-1.44,7.22,1.27,1.71,2.97,4.55,2.97,7.06,0,1.94-2.98,5.2-5.36,5.23ZM412.73,975.48c-1.83-1.06-6.83-1.36-7.54.37-.49,1.37-.78,5.39.4,5.47l4.64.31c1.01.07,3.26-1.13,3.67-2.07s-.29-3.57-1.18-4.08ZM412.5,991.73c.98-.04,2.68-2.04,2.75-3.05.06-.81-.92-3.06-1.7-3.37-1.69-.68-5.55-.85-8.35-.85l.05,7.53,7.25-.27Z"/>
    <path class="st2" d="M489.15,994.59l-13.76.43c3.24-6.27,3.36-16.14.4-23.36l13.5.44c5.89.19,8.98,5.77,9.11,10.87.13,4.82-2.81,11.41-9.25,11.61ZM481.64,991.98c6.31.5,10.02-.66,11.77-3.95,1.85-3.48,1.44-8.84-1.33-11.29-2.59-2.29-6.82-2.8-10.76-2.13l.31,17.37Z"/>
    <path class="st16" d="M591.06,986.04l-1.74-.47c-.49-.13.35-2.15.85-2.14l8.31.15-2.16,8.16c-3.74,4.06-10.95,4.57-15.65,1.83-6.73-3.92-7.13-12.59-3-18.08,4.27-5.69,14.12-4.99,18.08-.7.48.52.79,2.31.8,2.84.03,3.27-6.79-5.33-12.74-2.54-2.97,1.39-5.36,4.88-4.87,9.05.4,3.38,2.66,6.36,5.47,7.49,2.62,1.05,7.21-.02,8.81-2.04.34-.42.76-2.76.28-2.89l-2.44-.66Z"/>
    <path class="st14" d="M522.85,971.81l7.78.02c-.14.48-1.55,2.94-1.57,3.78l-.27,11.46c-.13,5.47-3.72,8.11-8.89,8.24-3.8.1-9.18-1.65-9.3-6.3l-.34-13-2.35-4.24,8.65.05-2.57,3.7.39,13.21c.05,1.59,3.6,3.47,5.16,3.52,1.77.05,5.58-1.77,5.64-3.77l.35-11.18c.03-1.09-1.43-3.32-2.68-5.48Z"/>
    <g>
      <path class="st14" d="M784.82,994.91c-1.73.49-4.06-.78-5.03-2.12l-9.8-13.49-.9,11.71,3.3,3.74-9.08.08,2.73-3.8-.02-15.57-2.66-3.6,6.29-.09,11.44,16.13.53-11.79-2.91-4.26,8.39-.03c-1.27,2.43-2.35,4.56-2.34,6.11l.06,16.98Z"/>
      <path class="st14" d="M719.62,991.95c.32.4,2.91.86,2.85,1.32l-.22,1.77-6.22-.34-6.53-9.69c-1.5,1.35-3.52,3.66-2.95,4.72l2.76,5.13-8.66-.04,2.48-3.7.14-15.04-2.49-4.29,8.46.07c-2.45,3.79-3.04,6.43-1.5,10.1l6.27-6.78c.29-.77.29-3.43,1.07-3.42l3.92.05,2.26.03c.32,0,.53.36.3.59l-1.6,1.63-8.06,8.28,7.74,9.6Z"/>
      <path class="st2" d="M682.9,971.82l8.26.02-2.51,4.23.04,11.18c.02,5.02-3.58,8.16-8.81,8.13-2.7-.02-6.14-.9-7.65-2.88-3.78-4.98.68-13.02-3.47-20.71l7.33.02c-2.94,8.68-3.14,19.27,2.46,20.26,3.36.6,6.85-1.43,6.87-5.92l.04-9c0-.97-1.31-3.1-2.55-5.33Z"/>
      <path class="st14" d="M745.71,971.8l7.76.02c-3.74,5.88-.93,11.71-2.49,18.63-.84,3.72-5.54,4.98-8.5,4.97s-8.4-1.2-8.54-4.95l-.55-14.38-2.64-4.25,8.99-.02-2.71,3.64-.08,10.88c-.03,3.41,2.57,5.89,5.55,5.87,3.24-.03,5.68-2.39,5.77-5.77l.24-9.58-2.79-5.04Z"/>
      <path class="st14" d="M658.7,994.94l-18.94-.2,13.19-19.71c-4.29-1.63-7.86-1.6-11.24,2.73l-.34-5.98,18.04.1-13.16,19.99,9.02.03c.5,0,1.34-1.91,1.8-2.12s1.68-.26,1.67.24l-.04,4.93Z"/>
      <path class="st14" d="M811.39,985.05l-7.83.14c-.96,3.69-.22,5.86,2.67,9.59l-9.13.15,2.27-3.83.25-14.94-2.64-4.28,17.53-.14-.28,5.91c-3.21-3.08-6.93-4.04-10.5-2.59-.35,1.62-.37,5.49-.11,7l8.13-.13-.36,3.11Z"/>
      <path class="st14" d="M837.2,994.84l-8.92-.06,2.87-3.89-.23-15.69c-1.4-1.45-4.69.07-6.49,2.54l-.76-5.98,18.29.03-.39,5.8c-2.43-2.19-4.71-3.56-6.65-2.78l-.43,13.72c-.04,1.26,1.11,3.35,2.69,6.31Z"/>
    </g>
    <path class="st16" d="M465.04,988.61l.42,6.33-16.99-.15,2.5-3.76.1-15.56-2.88-3.71h9.27s-2.92,4.35-2.92,4.35l.23,15.62c4.09,1.18,6.59.83,10.29-3.13Z"/>
    <polygon class="st16" points="438.19 995.02 429.16 994.73 432.03 991.01 431.8 976.14 429.38 971.71 438.3 971.88 435.66 975.42 435.44 990.41 438.19 995.02"/>
    <g>
      <path class="st16" d="M327.04,994.93l-8.44-.35c2.54-2.64,3.95-7.84,1.36-9.42-2.22-.69-7.66-.5-10.05-.09-1.58,3.42-.36,6.3,2,9.69l-8.84.09,2.16-3.99.38-14.55-2.8-4.51,9.01.08c-2.4,3.04-3.75,6.54-1.63,9.32,1.97.76,7.71.98,9.75-.05,2.68-1.36,1.21-6.76-1.76-9.13l9.03-.29c-1.34,2.5-2.49,4.66-2.48,6.22l.03,11.4c0,1.04,1.06,3.02,2.28,5.58Z"/>
      <path class="st13" d="M221.6,994.9c-2.68.27-5.37-11.48-10.59-7.17-1.36,1.12.27,4.54,2.17,6.93l-8.19.3c2.27-6.72,2.97-16.06-.2-23.26l12.92.17c3.27.04,6.52,3.33,6.81,6.12.41,3.8-.81,6.1-5.22,8.72l6.52,7.76-4.22.43ZM217.97,983.53c1.39-.1,3.16-3.42,2.94-4.71s-2.07-3.94-3.4-4.02l-7.3-.41.02,9.71,7.74-.57Z"/>
      <path class="st14" d="M344.46,984.74c-.4,1.64-.33,5.5.12,7.39,4.88.36,7.7-.14,11.26-1.96l.21,4.74-18.48-.04,2.8-3.84.07-15.6-2.87-3.58,17.98-.1-.13,5.24c-3.55-2.35-7.16-3.16-11.33-1.92l.23,5.48c.06,1.38,4.2,1.24,5.59,1.14l2.55-.18c.62-.04.51,1.69.45,3.19l-8.44.04Z"/>
      <path class="st14" d="M254.46,988.81l-11.25.47c-1.26.05-.98,3.89-.16,5.54l-8.01-.09,3.16-3.4,7.21-16.92c.48-1.14,1.37-2.68,2.24-2.86,1.08-.23,3.11,1.22,3.52,2.21l7.55,17.7,2.78,3.28-8.12.28,1.07-6.19ZM252.39,985.71l-4.22-9.55-3.94,9.62,8.15-.08Z"/>
      <path class="st14" d="M182.96,994.65l-8.12.27,1.96-3.5.27-15.95-2.49-3.61,12.21-.06c4.69-.02,7.93,3.87,7.74,7.87-.47,10.2-14.39,5.79-14.09,8.97.11,1.18.78,2.6,2.52,6.02ZM186.88,983.84c1.26-.06,3.43-2.19,3.77-3.42s-.74-4.69-1.97-4.84l-8.07-.98.14,9.51,6.13-.27Z"/>
      <path class="st14" d="M159.84,994.58c-4.67,1.85-12.64.49-13.35-4.82-.39-2.92,4.1,1.67,8.96,2.66,1.55.32,5.49-2.46,4.72-3.92-2.62-4.97-12.72-3.44-13.21-9.73-.23-2.98,1.5-5.78,4.52-6.93,3.84-1.47,10.68-.66,11.38,5.02.08.66-1.78.23-2.43-.09l-4.97-2.43c-1.45-.71-5.53,2.02-4.65,3.79,2.23,4.47,11.6,3.15,12.98,8.77.67,2.71-.67,6.38-3.96,7.68Z"/>
      <path class="st14" d="M286.63,976.14c-4.12-3.03-9.29-1.52-11.65,2.45-1.9,3.2-1.69,8.07,1.58,11.35,5.44,5.47,13.49-1.6,13.95-1.03l1.31,1.61c1.12,1.37-11.39,9.78-19.18.62-4.16-4.89-3.71-12.76,1.57-17.08,5-4.09,13.97-3.96,17.57,2.56.34.62-1.67,2.06-2.23,1.64l-2.91-2.14Z"/>
    </g>
  </g>
  <g>
    <path class="st8" d="M260.13,1066.33l.24,12.35-2.71-.08-8.6-12.21c-1.43,5.06-.9,8.04.85,12.27h-5.87c2.28-6.7,1.98-13,.04-18.96l4.28.2,8.62,12.18c1.23-5.22.78-7.83-.72-12.26l5.75-.1c-.84,2.25-1.9,5.04-1.87,6.6Z"/>
    <path class="st23" d="M235.45,1078.32c0,.2-3.53.9-4.15.05l-2.72-3.72-1.94-2.32c-.46-.56-3.37.65-3.13,1.33l1.69,4.77-6.03.29c2.27-6.7,1.99-12.87.26-19.04l7.76-.09c2.59-.03,5.93,1.6,6.74,3.99,1.04,3.08.36,5.5-3.47,8.47l4.98,6.27ZM230.85,1063.71c-.78-1.33-5.52-2.06-6.66-1.11-.99,1.43-.85,6.2.23,7.18l5.7-.76c1.14-.15,1.63-3.77.73-5.3Z"/>
    <path class="st23" d="M309.76,1077.87c-.02,1.3-2.85.27-3.51-.67l-8.07-11.43c-.77,5.08-.5,8.33.84,12.91l-5.53-.08c1.18-3.1,2.26-6.33,1.9-9.22l-1.22-9.63h3.51s9.05,12.31,9.05,12.31c1.11-5.3.63-8.61-.75-12.29l5.57-.02-1.57,3.79-.23,14.33Z"/>
    <path class="st23" d="M279.64,1070.22l-3.91.5c-.92.12-.55,4.22.13,4.85,1.65,1.54,6.27.55,8.78-1.16l.15,4.23-13.81.03c2.34-5.93,2.28-12.77.07-18.92l13.42-.02-.35,3.94c-2.49-1.39-6.86-2.18-8.37-.74-.56.53-1.11,3.91-.36,4.09l4.41,1.01c.36.08,2.19-.69,2.24-.33l.37,3.19c.06.56-2.21-.73-2.77-.66Z"/>
    <path class="st23" d="M205.42,1069.97l-4.26.92c-.87.19-.34,3.86.19,4.57,1.29,1.72,6.08.98,8.56-1.02l.12,4.21-13.28.02c1.88-6.72,2-13-.24-19.02l13.21-.03.21,4.17c-3.49-1.33-6.53-1.94-9.17-1.38l.1,4.42c.02.97,3.04.97,4.03.96l2.78-.03c.49,0,.08,2.07.05,2.7-.02.51-1.25-.05-2.31-.49Z"/>
    <path class="st23" d="M179.93,1075.33c.43,1.89,5.25.95,8.05-1.14l-.15,4.45-12.63-.02c2.22-6.58,1.99-12.86.25-18.93l6.1.12-1.72,3.72c-1.02,2.21-.32,7.56.1,11.8Z"/>
  </g>
  <g>
    <path class="st23" d="M593.18,1078.65c-.63.19-3.03-.37-3.54-1.07l-7.81-10.85c-1.85,4.57-1.03,8.06.78,12.15l-5.67-.26c2.35-5.95,2.2-13.12-.26-18.86l4.4.34,8.59,11.9c1.22-5.06.75-7.91-.88-12.22l5.31-.12-.93,19Z"/>
    <path class="st23" d="M544.75,1078.61l-5.54.03,1.29-8.32-8.88.09c-.63,2.04.2,5.51,1.36,8.2l-5.72.06c1.9-6.78,1.78-12.9,0-18.91h5.6c-.83,2.59-1.61,5.61-1.62,7.59l9.4.36-1.28-7.98,5.41.06c-2.19,6.74-1.89,12.97,0,18.83Z"/>
    <path class="st23" d="M445.6,1075.25l-2.36-2.92c-.57-.7-3.46.94-3.14,1.8l1.62,4.27-5.67.34c1.68-5.87,1.79-13.14-.15-19.1l10.83.31c1.84.05,4.24,3.29,4.18,5.01-.08,2.3-1.22,4.65-2.81,7.07-.93,1.41,1.72,4.07,3.94,5.82-.48.53-2.95,1.53-3.47.92l-2.97-3.51ZM447.23,1063.58c-1.75-1.39-5.11-1.66-7.12-1.39l.18,7.65,6.53-.94c1.3-.19,1.46-4.5.42-5.32Z"/>
    <path class="st23" d="M565.45,1070.4c.06,1.05-4.11-1.41-6.98,1.18-.78.7-.09,4.04.89,4.47,1.88.83,5.48-.25,8-1.52l.2,4.14h-13.35c1.99-6.84,1.62-12.95.19-19.04l13.01.11-.22,3.91c-.04.81-2.58-1.37-3.38-1.38l-4.35-.06c-.99-.01-1.47,2.8-1.2,3.75.84,2.89,6.99,1.12,7.05,2.05l.14,2.39Z"/>
    <path class="st23" d="M513.31,1070.41l-4,.33c-.92.08-.77,4.18-.1,4.82,1.6,1.49,6.06.3,8.63-1.18l.18,4.33-13.57-.04c1.92-6.08,1.95-12.77-.18-19l13.22-.02.03,4.15-4.47-1.66c-.9-.33-4.19-.3-4.23.67l-.13,4.06c-.03.96,3.28.97,4.24.92l2.32-.14c.54-.03.53,1.59.25,2.05s-1.42.66-2.2.72Z"/>
    <path class="st23" d="M421.67,1070.27l-3.84.45c-.91.11-.45,4.27.22,4.9,1.62,1.51,6.06.45,8.64-1.19l.1,4.22-13.79.06c2.41-6.73,2.33-13.17-.1-18.99h13.54s-.18,4.17-.18,4.17c-2.74-1.46-6.76-2.41-8.3-1.02-.56.5-1.08,4-.34,4.15l4.38.88c.55.11,2.37-.43,2.39.05l.09,2.45c.02.64-2.11-.21-2.8-.12Z"/>
    <path class="st23" d="M399.94,1059.95c-.42.02,3.54-.2,4.81-.27l-6.19,15.39-1.17,3.11c-.3.8-3.03.61-3.39-.24l-7.64-18.12,5.95-.08c-.32,2.01-.47,4.96.19,6.56l3.16,7.65c2.04-4.48,3.2-7.37,4.28-14Z"/>
    <path class="st23" d="M466.87,1079.03c-1.84-.09-4.99-1.21-6.06-2.31-.35-.36-.44-2.3-.43-2.8.01-.67,1.95.12,2.57.48l3.59,2.08c1.05.61,4.46-2.23,3.72-3.29-2.49-3.57-10.77-3.08-9.77-9.22.54-3.3,4.05-5.48,7.36-4.39l3.97,1.31c.83.27.48,2.77.14,3.87-2.52-2.28-5.78-4.37-8.1-.94-2.43,3.6,10.15,3.71,9.57,9.85-.3,3.2-2.96,5.54-6.57,5.35Z"/>
    <path class="st23" d="M490.12,1075.1c0,.54,1.18,2.74,1.44,3.12.35.51-1.65.49-2.43.46l-3.56-.15c-.64-.03,1.37-2.32,1.38-3.02l.19-13.68-5.68,2.5-.06-4.65,14.28.02-.1,4.4-5.6-2.13.13,13.12Z"/>
  </g>
  <g>
    <path class="st23" d="M702.53,1075.35l-2.32-2.97c-.58-.74-3.6.51-3.26,1.38l1.79,4.65-5.76.29c2.07-6.95,1.91-12.84-.07-19.12l10.84.34c1.75.06,4.06,3.45,4.04,5.14-.02,2.28-1.17,4.4-3.04,7.02-.24,1.45,1.87,3.75,4.18,5.91-.62.41-2.74,1.18-3.39.73-.78-.54-2.06-2.16-3-3.38ZM704.8,1065.12c-1.3-3.37-4.79-3.38-7.73-2.73l.21,7.34,5.77-.49c1.07-.09,2.14-3.1,1.75-4.12Z"/>
    <path class="st9" d="M757.73,1069.21c0,5.37-4.35,9.72-9.72,9.72s-9.72-4.35-9.72-9.72,4.35-9.72,9.72-9.72,9.72,4.35,9.72,9.72ZM746.57,1076.07c5.41,1.14,7.97-3.64,7.9-7.34s-2.85-7.27-7.61-6.56c-3.1.46-5.23,3.78-5.33,6.58s1.78,6.65,5.03,7.33Z"/>
    <path class="st23" d="M679.08,1070.56l-3.71-.16c-.79-.03-1.29,3.64-.73,4.19,1.54,1.51,5.86,1.41,8.82-.04l.11,4.15h-13.53c2.29-6.71,1.99-13.02.04-18.99l13.35.03-.34,3.99c-2.45-1.36-6.72-2.24-8.24-.84-.56.52-1.12,4.04-.37,4.17l4.42.74c.58.1,2.49-.19,2.48.32l-.02,2.21c0,.52-1.73.26-2.3.23Z"/>
    <path class="st23" d="M802,1073.58l-5.4-3.62,8.32-.71-1.28,6.76c-3.7,3.88-10.4,3.84-14.05.22s-3.64-9.75-.51-13.59c3.42-4.19,10.63-3.93,13.89-.78.78.76.08,3.53-.57,3.06-2.29-1.6-5.6-3.19-7.68-2.72-2.9.65-4.93,3.71-4.87,7.19.04,2,2.03,5.24,3.66,6.02,2.35,1.13,5,1.17,8.48-1.83Z"/>
    <path class="st23" d="M728.72,1070.56l-7.61.29,2.5,7.83-6.33.02c2.5-5.82,2.59-13.31.11-18.93l13-.06-.19,4.54c-2.51-1.96-6.76-2.91-8.16-1.36-.5.55-1.03,3.8-.37,4.14.88.46,2.88.87,3.92.84l2.46-.07c.35-.01.39.91.66,2.76Z"/>
    <path class="st23" d="M778.8,1074.66l.22,4.08h-12.76c1.9-6.69,1.93-12.51.23-18.95l5.23-.04c-1.52,5.96-1.42,10.44-1.03,16.59l8.11-1.69Z"/>
  </g>
  <g>
    <path class="st1" d="M801.23,281.23c-22.59-123.12-107.7-220.2-227.39-256.76-82.82-25.3-169.69-14.76-245.62,25.85-63.72,34.08-113.4,88.89-142.53,154.6-81.74,184.41,18.65,400.64,213.93,453.33l-12.53,7.68c-188.55-56.87-288.09-263.77-218.44-448.08,35.28-93.35,110.06-166.74,204.57-199.42,184.57-63.82,381.42,44.14,431.89,230.81s-52.48,363.94-229.77,417.13l-12.14-7.94c27.71-7.14,53.31-17.83,77.95-31.94,64.89-37.18,114.31-95.01,141.82-164.5,22.72-57.41,29.48-119.73,18.28-180.75Z"/>
    <path class="st6" d="M781.42,435.84h-5.08s4.42-15.04,4.42-15.04c19.5-73.7,11.98-151.28-21.24-220.02-13.62-28.18-30.76-53.86-52.39-76.75-53.5-56.64-126.88-92.02-205.16-96.99-88.34-5.6-175.91,27.44-238.16,89.79-81.79,81.93-111.66,203.86-77.92,314.46,11.55,37.86,29.33,72.72,53.58,103.91l-2.77.2c-.54.07-.84,1.48-1.11,2.32-78.14-100.38-90.22-237.25-30.41-349.86,28.91-54.44,73.57-99.66,128.55-128.8,51.85-27.48,109.93-40.89,168.55-36.92,90.59,6.13,174.51,51.21,229.25,123.5,62.53,82.57,80.77,191.45,49.88,290.19ZM790.5,385.3q0-1.22,0,0,0,2.34,0,0ZM789.54,389.17l-.23,4.05.23-4.05ZM788.54,395.17l-.23,4.05.23-4.05ZM781.53,428.96c1.23-2.59,1.59-4.62.93-5.43-1.24,2.58-1.6,4.65-.93,5.43Z"/>
    <path class="st5" d="M231.6,397.39c1.69-.1,1.82-.1,1.54-.02-3.67,6.94.55,11.79,1.35,11.52l1.88-.75c.26,1.2,1.43,3.29,2,4.42,2.18,10.05,6,19.87,10.54,29.64l3.9,8.56c.08.42.87,1.84,1.19,1.54l2.74-2.62c.66-.64,2.45,1.11,3.3,1.62l-4.94,3.96c5.3,10.57,10.79,19.99,17.23,29.13l.52-4.19c3.86-.2,7.25,1.98,9.43,5.12,1.86.56,4.64-1.5,5.74-3.2l-4.6,11.19c-1.33-.32-2.98-.61-2.89-.05l.46,2.91c6.81,9.03,14.22,17.22,22.07,24.88l1.41-1.52c-9.65-14.77-11.06-32.99-5.11-50.69,16.64,16.17,26.18,41.49,13.68,61.49,9.13,8.21,18.06,15.19,28.53,21.76l-8.38,17.49c-5.21,1.13-11.05,1.49-15.99.87,4.4-5.69,10.3-2,17.45-9.79l-.38-6.93.3-1.62-23.62-18.58c-14.03,6.23-29.1,5.62-41.86-1.75,5.14-1.17,11.68-2.74,16.66-.05,1.64,2.68,3.21,5.43,7.36,4.8,1.26-.19,3.9-.91,4.63-1.71.86-.93.85-3.52.76-4.49l6.45.45,1.55-.57.52-.49-11.67-11.54-17.3-19.95c-6.83,2.04-13.68,1.99-19.89.53,4.44-1.78,6.44-4.21,7.75-8.77l.9-3.15c.53-1.83-5.08-3.23-6.01-7.48l5.62,4.86,1.15-.78-13.1-22.55c-1.94-3.34-3.23-3.05-6.7-3.11-16.4-.28-30.02-11.63-37.31-25.17l5.6,1.94c1.11.36,2.67,1.72,2.8,2.76.18,1.51.72,4.04,1.46,5.17,2.1,3.18,7.12-.78,8.52,5.04.26,1.09,1.74,3.09,2.73,2.99s1.98-1.84,2.64-2.98l2.66-4.57c1.14-1.96,2.15-4.48,2.3-6.74l4.39,5.12,1.26-.97-9.85-26.9c-24.61-4.63-37.43-25.84-38.66-49.81,18.06,6.19,29.45,20.3,35.09,36.75l.23-2.99ZM244.25,442.88l.98-1.68-.98,1.68ZM267.36,485.07l.69-1.38-.69,1.38ZM273.5,484.25l-.02.65v.68l.02.65.02-.65v-.68l-.02-.65ZM278.5,487.25l-.02.65v.68l.02.65.02-.65v-.68l-.02-.65ZM304.7,519.88l-1.29,1.16.77.85,1.02-1.24-.51-.77ZM305.56,521.07l-1.2.98.83.75.95-1.16-.57-.58ZM305.98,523.96l1.03-1.42-1.03,1.42ZM307.22,530.95l.57-.45-.57.45Z"/>
    <path class="st18" d="M729.3,413.49l-11.21,29.02,5.42-4.05c-2.94,4-5.46,7.22-6.78,13.17l4.9-3c-.3-.42,1.55.93,1.21,1.28l-2.13,2.13c-1.68,1.68-3.22,3.6-3.59,5.82-1.24.17-3.11,0-5.65-.4-4.53,7.76-10.52,16.34-13.54,24.74,9.09-6.28,20.18-13.25,28.18-13.91l.65,1.31c-.22,1.11-12.94,2.52-18.71,8.54-2.73,2.85-3.97,4.17-7.57,5.93s-6.64,5.68-9.18,8.87l2.78.62c-1.63.9-4.54,2.13-6.51,2.66-.22.22-.8.81-.78.79l-19.74,22.32-1.51,3.63-3.06,2.99,1.24-3.11-9.11,8.77c-.44.42-1.07,2.69-.75,2.42-1.33.06-3.18,1.16-4.73,2.39l-22.18,17.67-2.24,3.32-2.61-4.97c9.98-6.7,19.71-14.04,27.74-21.92l2.53-1.44c-1.48-2.59-.91-4.08-.27-6.6,1.64.58,4.46-.59,5.49-2.25.89-1.44.96-4.67,1.02-6.63,1.2-1.04,3.33-3.12,4.09-4.38l2.43-4.04-5.32,15.3c9.63-7.48,16.84-16.47,23.16-25.2-3.71-3.89-5.72-7.87-7.02-12,3.75,2.22,2.35,7.25,7.37,6.14l-1.21-8.12,1.58-.04.77,8.87,1.65,1.88c8.24-11.71,16.07-23.09,22.06-35.46l-6.97-8.97,2.83,2.11c1.16,1.19,4.7-.13,5.87-1.29l1.88.74c5.76-12.16,10.67-23.93,13.95-36.48.13-.25,1.66-2.11,2.01-1.57l1.57,2.41ZM696.66,482.73l-.65.02.65.02h.68l.65-.02-.65-.02h-.68ZM658.5,521.24l-.5.5.5.5.5-.5-.5-.5Z"/>
    <path class="st21" d="M781.42,435.84c-18.66,59.65-53.91,112.83-102.11,151.88-.3-.94-.6-2.08-1.13-2.19l-2.24-.83c47.42-38.9,81.91-90.34,100.39-148.86h5.08Z"/>
    <path class="st20" d="M655.99,533.92l10.48-3.77.66-.88-11.08,2.61,6.42-5.94,3.06-2.99c13.78-10.43,31.77-14.51,49.27-8.86-15.36,19.46-36.76,29.42-58.81,19.82Z"/>
    <path class="st20" d="M624.7,557.39l2.24-3.32c15.95-8.03,35.44-8.71,52.1,1.11-14.16,11.91-30.91,18.35-48.42,14.53l-5.93-12.32Z"/>
    <path class="st20" d="M740.15,365.43l2.73-7.59-4.82,6.29v-4.89c-.07-19.05,9.97-37.58,27.44-48.22,3.35,22.96-4.23,44.62-25.35,54.42ZM743.5,356.24l-.5.5.5.5.5-.5-.5-.5Z"/>
    <path class="st18" d="M742.04,408.81l-6.45-3.47-4.68,2.19,1.99-7.83c4.21-16.58,17.07-30.18,34.58-36.01-1.19,19.14-9.07,36.26-25.44,45.11Z"/>
    <path class="st1" d="M724.1,456.67c.13-.68-1.81-1.26-2.57-1.49-.54-.16-.6,1.96-.51,2.14l-3.9.53c.37-2.22,1.91-4.15,3.59-5.82l2.13-2.13c.34-.34-1.51-1.7-1.21-1.28l-4.9,3c1.32-5.95,3.84-9.17,6.78-13.17l.32-1.35,9.05-6.97,3.95-5.08c6.48-4.44,13.66-7.75,22.79-9.19-3.58,18.49-17.56,36.99-35.52,40.8Z"/>
    <path class="st15" d="M219.15,334.15l1.97,6.97,2.11,4.03,1.75,7.91.07,1.16c-.16.23-.81,1.16-.78,1.18.01.01.71.84.73.87l.05,4.05-4.31,3.47c-18.5-9.36-25.87-31.2-22.57-52.61,9.71,5.4,16.49,13.55,20.98,22.97Z"/>
    <path class="st20" d="M262.49,447.48c-.84-.05-1.1-.06-1.2.32l-.14,1.64-1.12,1.84c-.85-.51-2.64-2.25-3.3-1.62l-2.74,2.62c-.31.3-1.1-1.12-1.19-1.54l-1.18-5.86c-3.63-18.05-.42-35.52,11.7-50.29,7.5,17.73,9.56,37.58-.84,52.88Z"/>
    <path class="st1" d="M740.96,317.6l-.18-7.26-3.07,7.14-3.75-3.23-.43-4.95h1.31s.96,3.07.96,3.07c-.26-19.27,3.91-38.1,19.1-50.71,6.4,21.28,3.16,43.96-13.93,55.94Z"/>
    <path class="st20" d="M665.13,505.15l-2.43,4.04c-.76,1.26-2.9,3.34-4.09,4.38-.06,1.96-.13,5.19-1.02,6.63-1.03,1.67-3.84,2.84-5.49,2.25.43-1.72.57-3.8.47-6.45l-2.95,9.23-1.45.97c-8.2-20.02-.44-41.83,15.91-57.08,4.08,12.44,4.84,24.86,1.06,36.03Z"/>
    <path class="st15" d="M709.9,448.39c-1.17,1.15-4.72,2.47-5.87,1.29l-2.83-2.11c-10.07-15.83-8.87-34.19-.83-52.97,12.95,15.5,17.05,35.87,9.53,53.79Z"/>
    <path class="st15" d="M227.29,307.16l-.37,12.21c-.18.13-.86.24-1.09.1l-1.35-5.5-.57,4.28c-17.89-11.3-21.85-35.09-14.9-56.62,13.75,11.65,18.8,28.83,18.28,45.52ZM223.5,311.3q0-1.22,0,0,0,2.34,0,0Z"/>
    <path class="st15" d="M260.78,479.35c.93,4.25,6.54,5.65,6.01,7.48l-.9,3.15c-1.31,4.56-3.31,6.99-7.75,8.77-16.93-4-27.88-15.29-36.53-31.74,14.58-1.26,28.41,3.4,39.17,12.34Z"/>
    <path class="st22" d="M240.97,410.21l-.18-6.46-2.59,5-1.29-12.5-.44-5.24c1.22-14.6,8.21-27.9,20.77-37.65,4.68,23.15.79,42.22-16.27,56.85ZM241.5,401.25l-.02.65v.68l.02.65.02-.65v-.68l-.02-.65Z"/>
    <path class="st20" d="M684.46,490.11l-.77-8.87-1.58.04,1.21,8.12c-5.02,1.1-3.62-3.93-7.37-6.14-5.3-16.84-.04-34.54,10.54-48.93,9.65,18.75,10.28,39.52-2.04,55.79Z"/>
    <path class="st1" d="M294.94,520.43l8.21,6.51c.72.57,1.95,2.73,1.78,3.83l-6.45-.45c.09.97.1,3.56-.76,4.49-.74.8-3.37,1.52-4.63,1.71-4.15.62-5.72-2.12-7.36-4.8-4.97-2.68-11.51-1.11-16.66.05-7.45-4.3-14.06-10.19-20.02-17.56,16.33-5.76,32.07-1.85,45.89,6.22Z"/>
    <path class="st15" d="M711.71,315.4c14.06,10.75,22.53,26.6,21.37,44.94l-1.49,4.1c-19.97-10.79-26.45-29.18-25.16-51.94l5.29,2.9Z"/>
    <path class="st22" d="M334.26,553.72l.38,6.93c-7.15,7.79-13.05,4.1-17.45,9.79-11.94-1.49-22.79-7.05-32.68-15.22,15.85-9.17,34.27-9.51,49.75-1.5Z"/>
    <path class="st15" d="M722.68,373.2l1.36,3.13c2.86,6.58,4.55,16.36,3.1,23.84-.72-.01-2.05.2-2.08.8l-.05,3.57-.85.23-4.19-8.27c-1.22,2.04-.58,3.25.73,4.86-.23,1.04-.82,2.65-.08,2.82l3.09.71-4.69.63-2.11-1.28c-12.15-13.2-15.34-32.85-10.34-50.51,7.21,5.27,13.16,12.7,16.1,19.46Z"/>
    <path class="st20" d="M621.1,550.72l-10.17-19.68c3.84-13.23,12.98-23.6,25.08-31.13,2.14,18.57-1.6,36.33-14.9,50.81Z"/>
    <path class="st1" d="M234.23,363.69l.76-6.79-2.77,2.6-1.63-7.32c.81-16.63,11.3-31.33,26.43-39.79,1.74,22.19-5.54,40.52-22.79,51.3ZM235.5,355.24l-.5.5.5.5.5-.5-.5-.5Z"/>
    <path class="st20" d="M352.7,530.72l-10.1,19.85c-13.66-13.89-17.18-31.65-14.95-50.73,11.59,7.91,20.25,17.45,25.05,30.88Z"/>
    <path class="st15" d="M237.2,263.11l-2.5,8.7-2.21-8.25-.71,1.16,1.03,8.78c-16.66-14.99-15.98-36.65-6.02-56.64,10.69,13.53,13.75,30.42,10.41,46.25Z"/>
    <path class="st1" d="M727.73,271.68c-.26-.34-.9-1.02-.55-.64l1.27-7.79-4.04,9.75-1.04-16.44.52-4.91,3.93-14.57c3.03-7.23,7.92-13.49,14.15-19.42,6.19,20.48,2.59,42.36-14.23,54.02Z"/>
    <path class="st22" d="M288.01,482.1c-1.1,1.7-3.88,3.76-5.74,3.2-2.18-3.14-5.57-5.32-9.43-5.12-5.42-14.61-3.32-31.34,4.5-45.96l6.4,11.36c6.27,11.11,7.78,24.54,4.26,36.52Z"/>
    <path class="st20" d="M232.48,318.9l-1.66-1.69-.2-5.16c.56-.18,1.29-1.25,1.46-2.08,3.57-17.23,15.33-30.63,32.12-36.97-.68,20.9-12.65,39.57-31.71,45.91Z"/>
    <path class="st15" d="M705.97,275.79c15.83,8.67,26.2,23.95,26.45,43.29-11.72-3.06-20.62-11.23-26.22-21.22-4.41-7.86-6.44-16.21-6.97-24.92l6.74,2.85Z"/>
    <path class="st15" d="M250.57,230.69c-1.39-1.25-1.63-3.99-2.25-7.49l-.33,9.52c-6.55-7-9.23-16.39-8.48-26.25,1-9.94,4.45-18.97,11.02-27.79,6.75,12,8.91,27.11,4.28,40.48l-4.24,11.52Z"/>
    <path class="st1" d="M708.04,269.28l-4.91-3.46c-1.61-1.14-4.23-3.65-5.41-5.22-5.4-7.16-10.2-15.29-11.04-24.06,20.86,6.08,33.23,16.37,38.44,39.12-6.32-1.44-12.32-3.03-17.08-6.38Z"/>
    <path class="st1" d="M243.26,274.64l-2.45-.48,4.71-5.99-5.53,3.49.24-4.34c6.37-15.38,19.36-27.61,37.06-30.41-4.64,19.39-15.91,32.62-34.03,37.73Z"/>
    <path class="st1" d="M716.95,232.17c-.39.38-.87-1.43-.91-1.92l-.53-6.3-.95,7.67-4.64-5.88-1.59-7.57-1.54-10.02-.1-6.82c-.11-7.72,2.27-15.16,6.36-22.95,12.2,16.31,15.43,38.67,3.9,53.79Z"/>
    <path class="st15" d="M271.63,196.2c1.92,1.38-2.31,1.4-3.03.67-.76-.77-1.9-2.5-2.38-3.72-6.83-17.11.12-35.32,13.56-47.61,3.76,12.53,3.55,24.96-1.52,36.11l-6.62,14.56Z"/>
    <path class="st15" d="M694.59,197.17l-7.2-10.9c-7.69-11.64-8.19-26.69-3.5-40.84,15.08,14.38,21.28,34.99,10.7,51.74Z"/>
    <path class="st1" d="M674.7,203.45c.23.38,1.83,1.92,2.53,2.09,5.82,1.47,14.73,4.74,19.58,9.2,4.18,3.85,7.35,7.97,10.22,12.35,1.69,2.58,2.95,5.78,3.81,8.46-8.98-.38-16.06-1.91-22.67-6.06-9.25-5.81-15.79-14.71-20.14-25.01l6.67-1.03Z"/>
    <path class="st1" d="M259.83,234.6l-2.18-.06c-.29,0-.23.16-.25.72l-2.22.02,5.83-6.92-7.14,5.3c6.27-17.28,22.14-29.02,41.77-29.31-5.97,15.24-21.6,30.61-35.82,30.24Z"/>
    <path class="st1" d="M356.93,112.27c-7.12,19.26-19.84,31.69-38.55,31.86,6.96-19.77,18-29.52,38.55-31.86Z"/>
    <path class="st1" d="M684.63,188.41c.19.9,1.23,3.76,2.12,4.91l4.38,5.67-5.25,1.01-10.62-.88-3.19-.63-3-.64c-8.88-4.73-16.97-10.79-23.09-20.57,11.43-2.15,24.16.27,33.56,8.36,1.6,1.38,3.75,2.49,5.09,2.76Z"/>
    <path class="st15" d="M317.99,177c-9.86,15.32-25.21,25.34-44.67,22.51,8.1-17.24,26.06-25.23,44.67-22.51Z"/>
    <path class="st18" d="M414.64,666.76c-3.65,1.69-9.28-.06-13.39-1.41,2.29-2.54,4.61-4.06,7.55-5.32l54.47-23.24,8.04,3.71-56.68,26.26Z"/>
    <path class="st18" d="M562.64,665.13c-4.5,1.91-11.01,3.31-15.1,1.39l-55.19-25.91,7.97-3.74,46.39,19.76c5.46,2.35,10.15,4.48,15.93,8.51Z"/>
    <path class="st5" d="M644.69,144.42c-12.32-.69-21.67-6.36-29.03-14.91-3.72-5.35-6.67-10.92-9.02-17.02,19.51,1.09,33.99,14.36,38.05,31.92Z"/>
    <path class="st1" d="M312.15,119.68c2.85,18.5-4.83,35.33-18.62,46.33-6.76-18.15,2.66-34.79,18.62-46.33Z"/>
    <path class="st20" d="M671,164.4c-1.37-.72-2.2-1.14-3.95-.95-2.57-2.4-6.77-6.03-8.6-9.27-5.96-10.57-9.3-21.54-7.45-34.38,16.33,10.94,23.9,26.23,20,44.6Z"/>
    <path class="st1" d="M343.57,153.19c-13.03,13.65-26.88,21.33-46.07,15.26,10.07-14.26,28.59-21.73,46.07-15.26Z"/>
    <path class="st1" d="M656.72,158.79l7.46,7c.6.56,1.5,2.58,1.18,2.79-11.77,3.69-25.29,2.68-34.82-5.87l-10.29-9.24c13.25-5.57,25.78-2.16,36.47,5.32Z"/>
    <path class="st13" d="M239.48,535.2c20.43,26.27,44.48,48.86,72.33,67.16,1.16.77,2.51,2.38,1.99,3.13-.42.6-1.8,1.45-2.64,1.75-29.49-18.96-54.58-42.43-75.55-69.53.27-.84.56-2.25,1.11-2.32l2.77-.2Z"/>
    <path class="st20" d="M226.85,424.86c-1.4,3.85-.25,6.8,2.54,9.22l-10.55,3.22c-.12-1.04-1.68-2.39-2.8-2.76l-5.6-1.94c-2.86-5.3-5.42-10.51-6.25-16.69,9.33,1.46,16.3,4.55,22.66,8.95Z"/>
    <path class="st23" d="M736.95,356.19l-.32,3.03-.47,8.11-4.69,32.21,1.42.17-1.99,7.83,4.68-2.19,6.45,3.47c-3.9,2.11-8.54,4.03-12.74,4.67l-1.57-2.41c-.35-.53-1.88,1.32-2.01,1.57l-7.82-7.32,1.11.19,4.69-.63.45-.12.85-.23,1.34-.28c-.51,1.85-1.01,3.33-.09,5.47l7.54-34.28c.22-.99-.58-3.42-.73-4.43-.22-1.52,1.32-4.23,1.45-6.05l.65-8.73,1.77-.06ZM730.5,409.24l-.5.5.5.5.5-.5-.5-.5Z"/>
    <path class="st13" d="M598.11,142.96l-49.14.66-3.44-.49c-.65-.09-.51-1.67-.4-3.46l53.08.2-.1,3.08Z"/>
    <path class="st13" d="M418.32,143.6l-50.37-.47-2.48-.66c-.65-.18.84-2.32,1.38-2.48l51.72-.45-.25,4.06Z"/>
    <path class="st24" d="M237.34,434.03l1.8,2.16c-.15,2.27-1.16,4.78-2.3,6.74l-2.66,4.57c-.66,1.14-1.66,2.88-2.64,2.98s-2.47-1.9-2.73-2.99c-1.39-5.82-6.42-1.86-8.52-5.04-.74-1.13-1.28-3.65-1.46-5.17l10.55-3.22,7.95-.04Z"/>
    <path class="st23" d="M234.23,363.69l-5.25,3.28,5.9,34.28,1.5,6.89-1.88.75c-.81.27-5.02-4.58-1.35-11.52.28-.07.15-.08-1.54.02l-4.69-30.48-6.18-3.13,4.31-3.47h.91s.52,4.15.52,4.15l.5-3.19h2.01s.92,4.95.92,4.95l.68-14.04,1.63,7.32,2.77-2.6-.76,6.79Z"/>
    <path class="st13" d="M675.94,584.7l2.24.83c.53.11.84,1.25,1.13,2.19l-27.32,19.82c-.88-.86-2.1-3.19-2.01-3.75l25.96-19.09Z"/>
    <path class="st25" d="M243.26,274.64c-1.91.54-3.04.91-6.18.78-2.76,10.19-4.92,21.53-6.76,32.75l1.77,1.79c-.17.84-.9,1.9-1.46,2.08-.82.99-.81,4.13.2,5.16l1.66,1.69-3.25,1.7-.86,8.77-1.46-.09v-9.91s2.18-12.33,2.18-12.33l5.99-31.86c.35-1.84,3.19-3.45,4.9-3.52l5.53-3.49-4.71,5.99,2.45.48Z"/>
    <g>
      <path class="st24" d="M523.01,214.35l-.33-2.11h-101.65s-1.36,1.43-1.36,1.43l97.31,119.46-29.25,32.95-80.47,91.85,121.63.11c12.06.01,22.88-2.35,34.06-5.7l14.01-8.17c10.79-8.13,17.96-19.1,23.79-31.15l9.28.2-15.32,78.49-240.49-.02c-1.26-3.38-1.22-6.56-.16-9.28l41.7-45.52,80.21-88.63-73.44-84.52-48.76-55.33c-.64-2.62-.62-5.5.38-8.54h239.43s4.07,69.39,4.07,69.39l-9.79.19c-8.92-37.66-28.07-51.53-64.87-55.12Z"/>
      <polygon class="st4" points="523.01 214.35 512.88 213.37 419.67 213.68 421.03 212.23 522.68 212.25 523.01 214.35"/>
    </g>
    <path class="st25" d="M250.57,230.69l3.31,2.98,7.14-5.3-5.83,6.92-4.62,1.34c-4.24,10.35-8.24,20.41-10.33,30.7-.39.21-.83.43-1.04.65l-1.23,1.28.69-5.41,4.66-13.35,5.1-12.31c.6-1.44-.47-3.99-.42-5.46l.33-9.52c.62,3.5.85,6.23,2.25,7.49Z"/>
    <path class="st12" d="M658.45,154.18c1.83,3.25,6.03,6.87,8.6,9.27,1.75-.19,2.58.23,3.95.95-.37,1.76-.13,4.99.85,6.29l.64.85c.21-.82-.13.51-.3,1.18l-.9-1.31c-.94-1.32-4.2-3.38-5.94-2.84.32-.21-.58-2.23-1.18-2.79l-7.46-7-1.5-4.11-1.01-.41-4.48-4.34-.66-.71.68-.77,1,.77,4.58,4.32c.1.09.15.22.24.6l2.89.05Z"/>
    <polygon class="st25" points="728.73 275.31 733.34 296.02 734.83 309.29 733.53 309.3 726.06 272.36 722.83 260.32 725.5 266.7 728.73 275.31"/>
    <polygon class="st25" points="736.95 356.19 735.18 356.25 735 329.24 736.44 329.14 737.56 347.42 736.95 356.19"/>
    <path class="st7" d="M694.59,197.17l1.32,5.48-4.77-3.66-4.38-5.67c-.89-1.16-1.93-4.02-2.12-4.91l2.75-2.14,7.2,10.9Z"/>
    <path class="st5" d="M237.34,434.03l-7.95.04c-2.79-2.43-3.94-5.37-2.54-9.22,3.72,2.57,7.59,5.69,10.49,9.18Z"/>
    <path class="st25" d="M716.95,232.17l-2.66,3.48,2.76,5.2-.21,3.35-8.52-17.17.9-1.18.7-.11,4.64,5.88.95-7.67.53,6.3c.04.49.52,2.3.91,1.92Z"/>
    <path class="st25" d="M719.28,249.07c-1.41-.94-2.28-3.35-2.43-4.87,1.21,1.15,2.27,3.14,2.43,4.87Z"/>
    <path class="st25" d="M725.1,253.4l.34,4.92-2.77,1.07-3.39-10.32,2.03,2.94,1.47,2.13c.39.56,1.66-.26,2.33-.75Z"/>
    <path class="st18" d="M738.36,473.25l-3.04-3.9c-3.43-.12-5.53-.25-7.35-.72l13.93-1.92-3.54,6.54Z"/>
    <path class="st12" d="M238.65,263.84l-.69,5.41,1.23-1.28c.21-.22.65-.44,1.04-.65l-.24,4.34c-1.71.07-4.55,1.68-4.9,3.52l-2.27-1.68-1.03-8.78.71-1.16,2.21,8.25,2.5-8.7,1.45.73Z"/>
    <polygon class="st23" points="740.96 317.6 736.48 319.96 736.44 329.14 735 329.24 733.96 314.25 737.71 317.48 740.78 310.34 740.96 317.6"/>
    <path class="st12" d="M240.97,410.21l-2.6,2.34c-.57-1.13-1.74-3.22-2-4.42l-1.5-6.89.98-2.89.62-7.34.44,5.24,1.29,12.5,2.59-5,.18,6.46Z"/>
    <polygon class="st4" points="228.98 361.26 226.97 361.27 227.04 359.21 227.01 353.24 226.91 329.28 228.38 329.37 228.23 354.21 228.98 361.26"/>
    <path class="st18" d="M736.83,425.06l-3.95,5.08-9.05,6.97c3.34-4.74,8.14-8.72,13-12.05Z"/>
    <path class="st25" d="M652.1,522.46c-.64,2.52-1.21,4.02.27,6.6l-2.53,1.44-1.67-4.3,1.45-.97,2.95-9.23c.1,2.65-.03,4.73-.47,6.45Z"/>
    <polygon class="st25" points="740.15 365.43 736.16 367.33 736.63 359.22 738.05 359.24 738.06 364.13 742.88 357.85 740.15 365.43"/>
    <path class="st7" d="M724.04,376.33l-1.36-3.13,6.71-3.08c-.92,4.22-3.1,4.44-5.36,6.21Z"/>
    <path class="st25" d="M690.12,499.26l-2.26-.27c-.48-.06-.67-1.15-1.07-1.99-.02.02.56-.57.78-.79,1.97-.53,4.88-1.76,6.51-2.66l3.68-1.14-6.23,4.34c-.68.48-2.03,2.06-1.41,2.5Z"/>
    <path class="st7" d="M703.13,265.82c-.72.8-2.54,1.65-3.1,1.04l-2.21-2.38-1.82-1.96c-.4-.43,1.19-2.03,1.72-1.91,1.18,1.57,3.8,4.08,5.41,5.22Z"/>
    <polygon class="st12" points="229.09 307.04 226.92 319.37 227.29 307.16 229.09 307.04"/>
    <path class="st25" d="M227.01,353.24l.02,5.97c-.31.03-1.12.75-1.08,1.1h-.91s-.05-4.05-.05-4.05l.05-2.05-.07-1.16,2.04.19Z"/>
    <path class="st25" d="M662.47,525.94l-6.42,5.94,11.08-2.61-.66.88-10.48,3.77-2.14.09c-.32.27.31-1.99.75-2.42l9.11-8.77-1.24,3.11Z"/>
    <path class="st18" d="M727.14,400.17l-.79,4.09-1.34.28.05-3.57c.03-.59,1.36-.81,2.08-.8Z"/>
    <polygon class="st12" points="225.83 319.47 223.91 318.26 224.48 313.98 225.83 319.47"/>
    <path class="st7" d="M672.08,198.5l-.54,1.92c-.14.49-2.06.95-2.12.45l-.35-3.01,3,.64Z"/>
    <path class="st12" d="M304.93,530.77c.17-1.1-1.06-3.26-1.78-3.83l-8.21-6.51.39-2.27,11.67,11.54.79.79-.57.45-.74-.75-1.55.57Z"/>
    <path class="st18" d="M724.1,456.67l-3.08.65c-.09-.18-.03-2.3.51-2.14.77.23,2.7.81,2.57,1.49Z"/>
    <circle class="st7" cx="703" cy="271.24" r="1.11"/>
    <path class="st23" d="M223.23,345.14l-2.11-4.03-1.97-6.97c1.64,3.43,3.25,7.29,4.07,11Z"/>
    <polygon class="st18" points="719.02 405.52 717.91 405.33 716.92 404.25 719.02 405.52"/>
    <path class="st5" d="M261.16,449.45l.14-1.64c.09-.38.36-.37,1.2-.32l-1.33,1.96Z"/>
    <path class="st25" d="M259.83,234.6l-2.43.66c.03-.56-.04-.73.25-.72l2.18.06Z"/>
    <path class="st21" d="M781.53,428.96c-.67-.79-.31-2.85.93-5.43.66.81.3,2.84-.93,5.43Z"/>
    <path class="st21" d="M788.32,399.22l.23-4.05-.23,4.05Z"/>
    <path class="st21" d="M789.32,393.22l.23-4.05-.23,4.05Z"/>
    <path class="st21" d="M790.5,385.3q0,2.34,0,0,0-1.22,0,0Z"/>
    <polygon class="st22" points="278.5 487.25 278.51 487.91 278.51 488.58 278.5 489.23 278.48 488.58 278.48 487.91 278.5 487.25"/>
    <polygon class="st3" points="273.5 484.25 273.51 484.91 273.51 485.58 273.5 486.23 273.48 485.58 273.48 484.91 273.5 484.25"/>
    <g>
      <path class="st11" d="M483.4,83.5l-25.22-.03h-39.21c-.81.01-2.82-.21-2.7-.8l.54-2.71,64.94-30.12,63.28,29.24,2.04,1.77c.46.4-.52,2.28-1.05,2.86l-62.62-.21ZM517.24,79.81l-35.56-16.58-35.28,16.74,70.84-.17Z"/>
      <rect class="st17" x="418.59" y="87.56" width="127.65" height="6.82" transform="translate(-.24 1.26)"/>
      <rect class="st17" x="415.73" y="164.41" width="132.21" height="5.58"/>
      <polygon class="st17" points="501.64 142.81 502.47 151.13 489.72 151.21 489.9 104.75 501.63 104.53 501.64 142.81"/>
      <polygon class="st17" points="529.75 150.8 517.13 151.29 517.87 146.34 517.86 104.37 529.67 104.32 529.75 150.8"/>
      <polygon class="st17" points="474.1 150.76 462.12 151.44 462.18 104.34 473.76 104.32 474.1 150.76"/>
      <rect class="st17" x="425.15" y="155.72" width="113.08" height="4.49"/>
      <polygon class="st17" points="445.96 150.74 433.92 151.23 434.05 104.3 445.82 104.36 445.96 150.74"/>
      <polygon class="st14" points="533.3 101.89 514.56 101.88 514.24 98.29 533.26 98.3 533.3 101.89"/>
      <path class="st16" d="M449.29,101.88l-17.92.02c-.91,0-1.23-3.56-.37-3.58l18.58-.03-.3,3.58Z"/>
      <path class="st16" d="M477.22,101.75l-16.11.2c-.59,0-2.21-.57-2.26-1.05l-.25-2.59,18.78-.08-.16,3.51Z"/>
      <path class="st14" d="M502.9,101.99l-15.54-.1c-.37-.45-1-2.58-1.2-3.55l18.93-.09.37,2.13c.11.62-1.91,1.62-2.56,1.61Z"/>
    </g>
    <polygon class="st3" points="696.66 482.73 697.33 482.73 697.99 482.74 697.33 482.76 696.66 482.76 696.01 482.74 696.66 482.73"/>
    <rect class="st3" x="658.14" y="521.39" width=".71" height=".71" transform="translate(-176.06 618.44) rotate(-45)"/>
    <path class="st22" d="M738.36,473.25c-9.62,17.78-27.72,28.46-48.24,26.02-.62-.44.73-2.03,1.41-2.5l6.23-4.34-3.68,1.14-2.78-.62c2.54-3.2,5.71-7.18,9.18-8.87s4.85-3.08,7.57-5.93c5.77-6.03,18.49-7.44,18.71-8.54l-.65-1.31c.52-.04,1.88.33,1.85.35,1.82.47,3.91.6,7.35.72l3.04,3.9Z"/>
    <rect class="st25" x="743.14" y="356.39" width=".71" height=".71" transform="translate(-34.49 630.22) rotate(-45)"/>
    <path class="st23" d="M225,356.26s-.71-.86-.73-.87c-.03-.02.62-.95.78-1.18l-.05,2.05Z"/>
    <path class="st12" d="M223.5,311.3q0,2.34,0,0,0-1.22,0,0Z"/>
    <polygon class="st12" points="241.5 401.25 241.51 401.91 241.51 402.58 241.5 403.23 241.48 402.58 241.48 401.91 241.5 401.25"/>
    <path class="st18" d="M724.16,404.77l-.45.12-3.09-.71c-.74-.17-.15-1.77.08-2.82-1.31-1.62-1.95-2.82-.73-4.86l4.19,8.27Z"/>
    <rect class="st23" x="235.14" y="355.39" width=".71" height=".71" transform="translate(-182.57 270.72) rotate(-45)"/>
    <path class="st3" d="M230.62,312.05l.2,5.16c-1.01-1.03-1.02-4.18-.2-5.16Z"/>
    <rect class="st18" x="730.14" y="409.39" width=".71" height=".71" transform="translate(-75.77 636.55) rotate(-45)"/>
    <path class="st3" d="M226.97,361.27l-.5,3.19-.52-4.15c-.04-.36.77-1.07,1.08-1.1l-.07,2.06Z"/>
    <g>
      <path class="st20" d="M370.88,532.07l.11,2.36-27.52,58.21c-.79,1.68-.85,3.28-.52,5.51-1.47,1.58-3.06,4.28-4.29,7.08l45.37-1.83c29.94-1.21,64.88,3.75,89.77,20.16l16.42.2c24.09-16.71,60.05-22,89.75-20.64l45.1,2.07c-.44-1.47-.86-3.18-1.44-3.88,1.23-1.39,3.54-1.92,6.37-2.4l5.2-3.07,11.36,23.08-98.57.38c-16.71.06-32.61,4.49-48.04,9.7-2.08,2.93-4.95,6.1-8.5,6.57-11.09,1.45-24.53,1.82-28.12-6.91-15.99-5.13-32.15-9.39-49.38-9.43l-97.14-.25,37.28-74.63,5.45-11.29,11.33-1Z"/>
      <path class="st14" d="M515.76,520.01l3.15,3.37c-13.28,3.38-24.81,10.17-35.41,20.09v27.71s.02,4.12.02,4.12l.06,8.98v8.98s-.06,18-.06,18l.3,4.89.67,4.43c-1.13.7-4.49.5-5.64-.25l.05-5.8c.41.03,1.32-1.39,1.31-1.71l-.09-41.39v-7.34s.06-19.48.06-19.48c0-1.54-3.27-4.02-3.92-4.37-6.25-6.37-14.27-10.2-22.73-13.56-8.6-4.14-17.96-5.65-27.81-5.87-4.87-.11-9.66-.72-14.91.51-4.27-.1-8.15.05-11.95.95l-17.62,2.01-3.57.14c-.96.04-1.97,1.78-2.57,2.88l-4.11,7.11-.11-2.36,5.07-9.06,37.17-6.18c22.15-3.68,53.28,5.75,68.85,24.18,9.22-10.69,21.03-17.51,33.78-21Z"/>
      <path class="st18" d="M635.2,595.85l-5.2,3.07c-2.83.47-5.14,1-6.37,2.4l-2.51-3.04-.1-3.06c-.04-.86-.49-2.47-.96-3.44l-16.72-34.72-11.69-25.11-.45-.82.65-.7.61,1.31,11.15,1.14,31.59,62.97Z"/>
      <path class="st13" d="M580.94,571.37l-16.9-1.65-12.09.09-11.81,1.25-3.25.68-16.06,4.1c-5.96,1.52-11.76,4.67-16.99,7.88l-4.93,3.77-3.84-.04,12.34-9.86,5.66-3.03c9.4-5.02,19.96-7.84,31.04-8.81l29.9.26c2.22.02,3.11.24,5.47.82l12.74,3.12c.72.18,2.11,2.73,1.87,2.68l-13.15-1.28Z"/>
      <path class="st10" d="M619.95,594.41l1.08.82.1,3.06-11.15-.73c-1.88-1.32-5.07-2.1-8-2.4-19.56-2.01-38.87-3.69-57.76-.78l-.68-2.28c-.19-.54-1.73-.73-2.39-.89l-2.14-1.14c12.9-2.4,26.35-3.46,40.01-1.5l40.92,5.86Z"/>
      <path class="st13" d="M533.65,552.92l-5.11,1.17-5.72,1.57-15.26,6.31-3.2,1.76-9.73,5.59c1.32-2.81,3.31-5.19,5.66-6.89,17.43-12.6,38.41-16.17,59.79-15.27,2.86.12,4.43-.1,6.96.79,6.27,2.19,13.35.86,19.29,5.53-17.91-1.95-35.23-4.55-52.69-.56Z"/>
      <path class="st19" d="M539.01,590.05l2.14,1.14c.65.16,2.19.35,2.39.89l.68,2.28c-15.92,2.45-35.23,8.11-47.02,18.37l-12.71,7.86-.67-4.43,17.37-12.55,4.73-2.58c7.27-3.96,15.03-7.64,23.22-9.16l9.87-1.83Z"/>
      <path class="st14" d="M529.31,537.74c-12.46,2.17-23.24,7.19-34.69,13.6,6.83-10.56,28.43-17.81,41.34-18.69,14.43-.99,28.76-.13,42.74,4.64-14.95-.18-28.84-4.2-43.38-.6l-6.02,1.05Z"/>
      <path class="st21" d="M518.91,523.39l-3.15-3.37c11.29-3.09,23.02-4.49,35.22-3.23,12.89,1.32,25.09,3.22,37.41,6.88h-16.39c-2.58-1.94-6-1.91-8.97-1.05-1.89-.95-5.07-1.99-7.66-1.41-2.77.61-4.91-.36-7.43-.58-9.81-.83-19.99.47-29.03,2.77Z"/>
      <path class="st19" d="M423.96,589.71c7.81,1.26,15.82,3.15,23.04,6.33l5.92,2.6,6.61,3.37,4.31,2.61,10.79,7.99c1.41,1.04,3.1,1.88,4.27,1.95l-.05,5.8-18.67-12.19c-27.85-18.18-65.27-16.48-97.23-11.7-6.85-1.08-11.17,2.78-19.99,1.69-.33-2.23-.27-3.83.52-5.51.09.75,2.33,1.42,3.15,1.3l36.29-5.32c14.05-2.06,27.67-1.08,41.05,1.07Z"/>
      <path class="st3" d="M478.9,614.54c.13-.63.91-1.36,1.31-1.71.01.32-.89,1.74-1.31,1.71Z"/>
      <path class="st8" d="M609.97,597.55l-9.79-.75c-19.81-1.52-39.35-2.7-59.05.48-15.93,2.58-30.69,7.25-43.94,15.45,11.79-10.26,31.11-15.92,47.02-18.37,18.89-2.91,38.21-1.23,57.76.78,2.93.3,6.12,1.08,8,2.4Z"/>
      <path class="st17" d="M432.09,568.45l5.82,1.25c7.87,2.72,16.19,5.81,22.91,10.75l5.62,4.12,1.68,1.61v2.07s-4.88-2.41-4.88-2.41l-7.06-4.13-18.12-7.48-2.06-.33-4.8-1.24-7.21-1.54c-12.07-2.57-24.87-1.29-37.54-.25l-4.49.37-12.61.97c2.68-2.55,5.29-3.09,8.68-3.65l14-2.31c13.33-2.2,26.89-.64,40.05,2.19Z"/>
      <path class="st13" d="M456.01,557.95c4.73,2.56,9.28,5.7,12.56,10.63l-15.42-8.06-9.32-3.95c-14.1-5.97-29.69-6.49-45.14-5.15l-22.1,1.92c11.38-5.19,22.79-5.39,34.43-5.99,15.97-.82,31.18,3.13,44.98,10.6Z"/>
      <path class="st14" d="M467.8,550.61l-9.46-4.91c-6.39-3.32-13.4-6.43-21.22-7.33-4.37-1.64-9.11-2.62-13.76-1.76-7.04-1.78-14.16-1.21-21.02-.25l-8.69,1.22c-2.15.3-6.21.09-9.11-.5,28.35-7.48,58.37-8.06,81.16,10.46l2.1,3.07Z"/>
      <path class="st0" d="M460.17,608.16l-6.47-1.81c-18.26-6.64-36.99-10.53-56.72-10.96l-29.62,1.23c-1.75.07-3.2.04-4.42-.15,31.96-4.78,69.38-6.48,97.23,11.7Z"/>
    </g>
  </g>
</svg>